<svg xmlns="http://www.w3.org/2000/svg" viewBox="0 0 500 500"><g id="freepik--background-complete--inject-24"><rect x="416.78" y="398.49" width="33.12" height="0.25" style="fill:#ebebeb"></rect><rect x="322.53" y="401.21" width="8.69" height="0.25" style="fill:#ebebeb"></rect><rect x="396.59" y="389.21" width="19.19" height="0.25" style="fill:#ebebeb"></rect><rect x="52.46" y="390.89" width="43.19" height="0.25" style="fill:#ebebeb"></rect><rect x="104.56" y="390.89" width="6.33" height="0.25" style="fill:#ebebeb"></rect><rect x="131.47" y="395.11" width="93.68" height="0.25" style="fill:#ebebeb"></rect><path d="M237,337.8H43.92a5.71,5.71,0,0,1-5.71-5.71V60.66A5.71,5.71,0,0,1,43.92,55H237a5.71,5.71,0,0,1,5.71,5.71V332.09A5.71,5.71,0,0,1,237,337.8ZM43.92,55.2a5.47,5.47,0,0,0-5.46,5.46V332.09a5.47,5.47,0,0,0,5.46,5.46H237a5.47,5.47,0,0,0,5.46-5.46V60.66A5.47,5.47,0,0,0,237,55.2Z" style="fill:#ebebeb"></path><path d="M453.31,337.8H260.21a5.72,5.72,0,0,1-5.71-5.71V60.66A5.72,5.72,0,0,1,260.21,55h193.1A5.71,5.71,0,0,1,459,60.66V332.09A5.71,5.71,0,0,1,453.31,337.8ZM260.21,55.2a5.47,5.47,0,0,0-5.46,5.46V332.09a5.47,5.47,0,0,0,5.46,5.46h193.1a5.47,5.47,0,0,0,5.46-5.46V60.66a5.47,5.47,0,0,0-5.46-5.46Z" style="fill:#ebebeb"></path><rect y="382.4" width="500" height="0.25" style="fill:#ebebeb"></rect><rect x="325.99" y="95.79" width="120.8" height="286.73" style="fill:#e6e6e6"></rect><rect x="331.13" y="100.98" width="110.53" height="281.54" style="fill:#f0f0f0"></rect><rect x="339.49" y="138.12" width="44.31" height="103.11" style="fill:#fafafa"></rect><rect x="389.58" y="138.12" width="44.31" height="103.11" style="fill:#fafafa"></rect><rect x="339.49" y="272.41" width="94.39" height="103.11" style="fill:#e6e6e6"></rect><path d="M356.77,108.45H416.6a17.28,17.28,0,0,1,17.28,17.28v7.05a0,0,0,0,1,0,0H339.49a0,0,0,0,1,0,0v-7.05A17.28,17.28,0,0,1,356.77,108.45Z" style="fill:#fafafa"></path><rect x="339.49" y="245.87" width="8.06" height="21" style="fill:#e6e6e6"></rect><rect x="347.55" y="245.87" width="1.58" height="21" transform="translate(696.69 512.74) rotate(180)" style="fill:#e0e0e0"></rect><path d="M344.89,254.12a3.4,3.4,0,1,1-3.4-3.4A3.4,3.4,0,0,1,344.89,254.12Z" style="fill:#e0e0e0"></path><rect x="342.49" y="260" width="1.75" height="4.25" style="fill:#e0e0e0"></rect><circle cx="338.49" cy="254.12" r="4.75" style="fill:#ebebeb"></circle><path d="M81.56,67H199.08a5.07,5.07,0,0,1,5.07,5.07V99a0,0,0,0,1,0,0H76.48a0,0,0,0,1,0,0V72.09A5.07,5.07,0,0,1,81.56,67Z" style="fill:#f5f5f5"></path><path d="M76.48,101.18H204.15a0,0,0,0,1,0,0v4.61a5.07,5.07,0,0,1-5.07,5.07H81.56a5.07,5.07,0,0,1-5.07-5.07v-4.61A0,0,0,0,1,76.48,101.18Z" style="fill:#f0f0f0"></path><rect x="81.48" y="88.26" width="15.25" height="6.5" rx="1.81" style="fill:#e0e0e0"></rect><rect x="191.73" y="88.26" width="7.25" height="6.5" rx="1.81" style="fill:#e0e0e0"></rect><polygon points="200.98 104.02 79.23 104.02 81.23 103.01 198.98 103.01 200.98 104.02" style="fill:#e0e0e0"></polygon><polygon points="200.98 106.53 79.23 106.53 81.23 105.52 198.98 105.52 200.98 106.53" style="fill:#e0e0e0"></polygon><polygon points="200.98 109.03 79.23 109.03 81.23 108.02 198.98 108.02 200.98 109.03" style="fill:#e0e0e0"></polygon><path d="M81.86,292.15c1.09-2.7,3.56-4.27,5.81-3.67s4.09,3.3,4.33,6.35a4,4,0,0,1,5.51-.18,7.89,7.89,0,0,1,2.22,6.76c1.8-1.84,4.74-1.08,5.9,1.51s.26,6.42-1.8,7.66c1.4.13,2.6,1.9,2.56,3.78s-1.3,3.56-2.71,3.59c1.42,0,2.73,1.62,2.9,3.5s-.81,3.84-2.18,4.34c1.44.81,1.8,3.81.63,5.19s-3.35.5-3.77-1.51a.7.7,0,0,1-1.24.24,1.3,1.3,0,0,1,.24-1.64c-.65,1.16-2.31.62-2.49-.81.49,3.31-2.63,6.42-4.86,4.85a3,3,0,0,1-1.44,3.74c-1.17.43-2.41-.18-3.51-.86s-2.23-1.5-3.44-1.48a9.46,9.46,0,0,0-3.09,1.09c-3.24,1.32-7,.06-9.39-3.14-1.68,2.87-5.68,2.1-6.69-1.29a3.38,3.38,0,0,1-2.63,3,3.09,3.09,0,0,1-2.87-2.61c0,.73-.05,1.45-.08,2.17-2.34.7-4.65-3.11-3.64-6-1.67,0-3.25-1.78-3.47-4s1-4.52,2.59-5.05c-2.75-1-4.85-4.59-4.88-8.39s2-7.47,4.74-8.53a2.78,2.78,0,0,1,3.2.56c.87,1,1,3.07,0,3.84-.83-3.41.4-7.5,2.76-9.2s5.58-.82,7.26,2a5.61,5.61,0,0,1,0-5.08,2.86,2.86,0,0,1,3.62-1.55c.32-2.34,2.16-4.11,3.93-3.76s3.15,2.75,2.95,5.11c.2-2,2.63-2.55,3.33-.79C83.14,291.51,81.86,292.15,81.86,292.15Z" style="fill:#ebebeb"></path><path d="M81.21,314.17a2.83,2.83,0,0,1,2.49-.76,2.62,2.62,0,0,1,1.81,2.15,2.35,2.35,0,0,1-1.21,2.6c-1,.31-2.07-.77-3.13-.58a7.76,7.76,0,0,0-1.1.42c-1.52.51-3-.74-4.28-1.93a5.17,5.17,0,0,1-1.2-1.45,2.43,2.43,0,0,1-.12-2,1.82,1.82,0,0,1,2.07-.85A7.47,7.47,0,0,1,80.76,314c0-.3-.07-.61-.11-.91Z" style="fill:#fafafa"></path><path d="M59.12,312.52a3.63,3.63,0,0,1,1.33-.88,1.17,1.17,0,0,1,1.37.48,2,2,0,0,1-.38,2.31,3.45,3.45,0,0,1-1.94.83c-.7.14-1.58.17-1.93-.61a1.81,1.81,0,0,1,.33-1.77,3.31,3.31,0,0,1,1.38-.86Z" style="fill:#fafafa"></path><path d="M94,298a6,6,0,0,1,2.82,4.28c.1.57.09,1.28-.31,1.58a1,1,0,0,1-1,0l-4-1.21a5.55,5.55,0,0,1,1.82,1.22,2.87,2.87,0,0,1,.69,2.34,1.93,1.93,0,0,1-1.87,1.59,3.6,3.6,0,0,1-2.23-1.12,3.76,3.76,0,0,1-1.41-2.62c0-1.1,1.08-2.11,1.75-1.41a13.58,13.58,0,0,1-4.34-2.5,4.7,4.7,0,0,1-1.26-1.49,2.65,2.65,0,0,1-.13-2.08c1.39-3.18,3.13,1.48,4,1.89C90.15,299.27,92,296.9,94,298Z" style="fill:#fafafa"></path><path d="M100.3,311.54a2,2,0,0,1-.36,1.78.77.77,0,0,1-1.29-.34,4.45,4.45,0,0,1,2.43,1.73c.56,1,.42,2.65-.48,3a1.84,1.84,0,0,1-1.67-.48,30.38,30.38,0,0,1-4.18-3.48,2.1,2.1,0,0,1-1.57,2.61,4.25,4.25,0,0,1-2.81-1.24c-1.06-.82-2.27-2.06-2-3.58A2,2,0,0,1,91,310a6.43,6.43,0,0,1,2.53,2.45,2,2,0,0,1,1.23-2.76,2.78,2.78,0,0,1,2.53,1.47c-1.13-.78-1.38-2.81.13-3.05C98.4,308,100.06,310.51,100.3,311.54Z" style="fill:#fafafa"></path><path d="M69.44,307a1.65,1.65,0,0,1,2.14,1.4,2.2,2.2,0,0,1-1.33,2.56A2.42,2.42,0,0,1,72,312.07a2,2,0,0,1,.36,1.27,1.33,1.33,0,0,1-1.21,1.17,3.06,3.06,0,0,1-1.57-.56,2.46,2.46,0,0,1,1.54.57,1.49,1.49,0,0,1,.23,1.8,1.1,1.1,0,0,1-1.29.19,6.29,6.29,0,0,1-2.65-1.89,2.36,2.36,0,0,1-2.22,1.18,2,2,0,0,1-1.27-2.29,1.71,1.71,0,0,1,1.38-1.26,3.39,3.39,0,0,1,1.75.34,4,4,0,0,1-1.41-2c-.21-.86.25-2,1-1.95s1.21,1.46,1.84,1.95C69.19,309.71,67.73,307.78,69.44,307Z" style="fill:#fafafa"></path><path d="M83.85,302.77a4.72,4.72,0,0,1,1.16,3.7c-.07,1.53-.62,3.17-1.73,3.79-1.47.81-3.29-.73-3.56-2.72a5.3,5.3,0,0,1,2.18-5A1.75,1.75,0,0,1,83.85,302.77Z" style="fill:#fafafa"></path><path d="M73.64,301.12c-.13.13-.25.27-.38.41a1.64,1.64,0,0,1,2.67-.27,2.88,2.88,0,0,1,0,3.38,1.64,1.64,0,0,1-2.67-.24,2.34,2.34,0,0,1-3.19-.76,3.11,3.11,0,0,1,.44-3.83c1-.73,2.55.36,2.44,1.83l.44-.62Z" style="fill:#fafafa"></path><path d="M62.37,303.42a7.42,7.42,0,0,1,1.74,3.1c.27,1.23-.17,2.81-1.15,3.13s-1.9-.71-2.46-1.77a4.67,4.67,0,0,1-.6-3.24c.29-1.1,1.53-1.74,2.15-.9Z" style="fill:#fafafa"></path><path d="M78.61,295.94a1.48,1.48,0,0,1,2.3-.8,3,3,0,0,1,.71,3,2.69,2.69,0,0,1-2.09,1.9,2.05,2.05,0,0,1-2.16-2.36,2.14,2.14,0,0,1-2.13,1,5,5,0,0,1-2.2-1,3.69,3.69,0,0,1-1.82-3.07,2.16,2.16,0,0,1,1.75-2,2.9,2.9,0,0,1,2.34,1.1c.51.55.94,1.23,1.49,1.72a1.57,1.57,0,0,0,1.89.34Z" style="fill:#fafafa"></path><path d="M75.54,327.43a20.67,20.67,0,0,1-2.76,18.47c4.08,0,7.74.28,11.82.28a44.28,44.28,0,0,1-1.24-19.42C81.09,326.76,77.81,327.43,75.54,327.43Z" style="fill:#e0e0e0"></path><polygon points="61.05 382.18 96.37 382.18 99.83 346.58 57.59 346.58 61.05 382.18" style="fill:#ebebeb"></polygon><polygon points="54.85 348.42 102.91 348.42 103.78 343.68 53.99 343.68 54.85 348.42" style="fill:#f5f5f5"></polygon></g><g id="freepik--Shadow--inject-24"><ellipse id="freepik--path--inject-24" cx="245.18" cy="412.39" rx="193.89" ry="11.32" style="fill:#f5f5f5"></ellipse></g><g id="freepik--Hanger--inject-24"><path d="M392.25,253.32,410.59,235a3,3,0,1,1,4.29,4.29l-22.63,22.63Z" style="fill:#0A6892"></path><path d="M392.25,253.32,410.59,235a3,3,0,1,1,4.29,4.29l-22.63,22.63Z" style="fill:#fff;opacity:0.5"></path><polygon points="400.85 244.72 392.25 253.32 392.25 261.89 400.85 253.29 400.85 244.72" style="opacity:0.2"></polygon><path d="M392.25,191l18.34-18.35a3,3,0,1,1,4.29,4.29l-22.63,22.63Z" style="fill:#0A6892"></path><path d="M392.25,191l18.34-18.35a3,3,0,1,1,4.29,4.29l-22.63,22.63Z" style="fill:#fff;opacity:0.5"></path><polygon points="400.85 182.37 392.25 190.97 392.25 199.54 400.85 190.94 400.85 182.37" style="opacity:0.2"></polygon><path d="M395.9,409H385V122.71a5.45,5.45,0,0,1,5.46-5.45h0a5.46,5.46,0,0,1,5.46,5.45Z" style="fill:#0A6892"></path><path d="M395.9,409H385V122.71a5.45,5.45,0,0,1,5.46-5.45h0a5.46,5.46,0,0,1,5.46,5.45Z" style="fill:#fff;opacity:0.5"></path><path d="M393.17,118a5.43,5.43,0,0,0-2.73,4.7V409h5.46V122.71A5.46,5.46,0,0,0,393.17,118Z" style="opacity:0.2"></path><path d="M413.08,414.12H367.8a9,9,0,0,1,8.2-5.24h28.88a9,9,0,0,1,8.2,5.24Z" style="fill:#0A6892"></path><path d="M413.08,414.12H367.8a9,9,0,0,1,8.2-5.24h28.88a9,9,0,0,1,8.2,5.24Z" style="opacity:0.2"></path><path d="M390.44,156.43l-18.35-18.34a3,3,0,0,0-4.28,4.28L390.44,165Z" style="fill:#0A6892"></path><path d="M390.44,156.43l-18.35-18.34a3,3,0,0,0-4.28,4.28L390.44,165Z" style="fill:#fff;opacity:0.5"></path><path d="M390.44,222.41l-18.35-18.35a3,3,0,1,0-4.28,4.29L390.44,231Z" style="fill:#0A6892"></path><path d="M390.44,222.41l-18.35-18.35a3,3,0,1,0-4.28,4.29L390.44,231Z" style="fill:#fff;opacity:0.5"></path><path d="M374.06,131.9l-3.84,30-14.09-6.11a5.66,5.66,0,0,1-3.73-6l1.36-10.59a5.62,5.62,0,0,1,5.12-4.9Z" style="fill:#0A6892"></path><polygon points="369.1 161.44 372.85 132.09 368.21 132.81 364.8 159.57 369.1 161.44" style="fill:#263238"></polygon><path d="M351.4,144.66H393a0,0,0,0,1,0,0v2.22a2.29,2.29,0,0,1-2.29,2.29h-37a2.29,2.29,0,0,1-2.29-2.29v-2.22a0,0,0,0,1,0,0Z" transform="translate(179.31 497.51) rotate(-82.72)" style="fill:#0A6892"></path><path d="M351.4,144.66H393a0,0,0,0,1,0,0v2.22a2.29,2.29,0,0,1-2.29,2.29h-37a2.29,2.29,0,0,1-2.29-2.29v-2.22a0,0,0,0,1,0,0Z" transform="translate(179.31 497.51) rotate(-82.72)" style="fill:#0A6892"></path><path d="M413.87,200.5s15.57,48.54,16.25,62.41l-3.58-.94s-.78-9.11-5.22-26.37S411.59,201,411.59,201Z" style="fill:#0A6892"></path><path d="M413.87,200.5s15.57,48.54,16.25,62.41l-3.58-.94s-.78-9.11-5.22-26.37S411.59,201,411.59,201Z" style="fill:#fff;opacity:0.30000000000000004"></path><path d="M415.07,176.68c-.07.08-.12.16-.19.23l-1.53,1.53c1.47,7-.25,19.44-.25,19.44l-1.76.35s-15.09-14.9-4.54-23a6.52,6.52,0,0,1,2.48-1.28l1.31-1.32a3,3,0,0,1,1.48-.8c-1.34-.66-3.1-.42-5.42,1.18-13.26,9.19,2.85,26.7,2.85,26.7l5.64-1.12S417.06,184.56,415.07,176.68Z" style="fill:#0A6892"></path><path d="M411.65,201.77s-3.9,25.57.42,43.28l5.59,2.5L421.2,242s-5.88-20.16-6.68-40.81Z" style="fill:#0A6892"></path><path d="M410,223.37,416.3,219q-.29-1.86-.54-3.81l-5.63,4.12Q410.05,221.32,410,223.37Z" style="fill:#263238"></path><path d="M410.27,232.36l7.46-5.16c-.23-1.19-.47-2.43-.69-3.72l-7,5.08C410.13,229.82,410.19,231.09,410.27,232.36Z" style="fill:#263238"></path><path d="M410.38,214.29l4.86-3.36c-.13-1.29-.26-2.6-.37-3.92l-4.16,3.05C410.59,211.36,410.48,212.78,410.38,214.29Z" style="fill:#263238"></path><path d="M418.73,232l-8,5.82c.15,1.19.32,2.37.53,3.53l8.25-5.71C419.3,234.58,419,233.36,418.73,232Z" style="fill:#263238"></path><path d="M409.19,198.93l1.95-1.54,1.39-.28,2.46.68a1.25,1.25,0,0,1,.87,1.57l-.9,3-4,.79L409,200.7A1.27,1.27,0,0,1,409.19,198.93Z" style="fill:#0A6892"></path></g><g id="freepik--character-2--inject-24"><polygon points="80.67 412.88 68.36 412.65 101.68 308.6 113.99 308.82 80.67 412.88" style="fill:#0A6892"></polygon><polygon points="71.56 412.88 59.25 412.65 92.57 308.6 104.88 308.82 71.56 412.88" style="fill:#0A6892"></polygon><polygon points="234.3 407.17 107.11 407.17 82.56 126.58 209.75 126.58 234.3 407.17" style="fill:#0A6892"></polygon><polygon points="234.3 407.17 107.11 407.17 82.56 126.58 209.75 126.58 234.3 407.17" style="fill:#fff;opacity:0.8"></polygon><path d="M158.72,197.05c2.15,3.28,4.35,6.54,6.57,9.77l6.7,9.66c1.09,1.6,2.23,3.19,3.27,4.76a15.06,15.06,0,0,0,2.85,3.21,10.11,10.11,0,0,0,4.71,2.21,9.17,9.17,0,0,0,2.66.06,10.06,10.06,0,0,0,2.33-.58,12.8,12.8,0,0,0,3.51-2.09,17.65,17.65,0,0,0,2.5-2.55,16.52,16.52,0,0,0,1-1.37c.33-.48.59-.92.92-1.51l-4.17-3.2-1,.73c-.36.25-.72.49-1.08.71a14.67,14.67,0,0,1-2.12,1.13,5.22,5.22,0,0,1-1.8.47c-.49,0-.75-.09-.84-.23a5.53,5.53,0,0,1-.43-.56,12.75,12.75,0,0,1-.81-1.41c-1-1.8-2-3.52-3-5.23q-3.09-5.13-6.3-10.1c-1.08-1.66-2.16-3.32-3.27-5s-2.21-3.28-3.36-4.9Z" style="fill:#ffc3bd"></path><path d="M155.34,192.11c-1,6,12.67,20.11,12.67,20.11l9.36-8.37s-2.74-8.39-8.22-13.88C163.52,184.34,156.46,185.58,155.34,192.11Z" style="fill:#0A6892"></path><path d="M168,212.22a96.41,96.41,0,0,1-8.81-10.69l3.9-4.41h4.1a73.44,73.44,0,0,1,6,10.49Z" style="fill:#263238;opacity:0.2"></path><polygon points="178.09 202.79 179.39 206.49 170.31 215.27 166.81 212.68 178.09 202.79" style="fill:#0A6892"></polygon><polygon points="178.09 202.79 179.39 206.49 170.31 215.27 166.81 212.68 178.09 202.79" style="fill:#fff;opacity:0.9"></polygon><path d="M191.31,215.6l5.16-5.08,2.44,7.54s-4.89,4.11-6.9,1.5Z" style="fill:#ffc3bd"></path><polygon points="203.38 209.03 203.28 216.22 198.91 218.06 196.47 210.52 203.38 209.03" style="fill:#ffc3bd"></polygon><path d="M202,209.38l6.62-1.84s.05,1.27-.21,1.58c-1.12,1.37-6.71,2.26-6.71,2.26Z" style="fill:#ffc3bd"></path><polygon points="178.05 405.49 184.9 403.91 183.22 387.68 176.38 389.25 178.05 405.49" style="fill:#7f3e3b"></polygon><polygon points="178.05 405.49 184.9 403.91 183.22 387.68 176.38 389.25 178.05 405.49" style="fill:#ffc3bd"></polygon><polygon points="177.4 399.17 176.38 389.25 183.22 387.68 184.25 397.6 177.4 399.17" style="opacity:0.2"></polygon><path d="M186.3,393.88l-11.59,2.67s-4-39.24-6-61a227.67,227.67,0,0,0-4.53-25.65c-2.76-12.39-6.22-25.79-9-36.29-3-11-5.27-23.13-5.27-23.13l24.59-1.92s11.85,59.19,13.42,80.51C189.48,351.28,186.3,393.88,186.3,393.88Z" style="fill:#263238"></path><path d="M153.42,267l2.61-5.61c6.76,8,8.75,32.1,7.7,46.58-2.68-11.84-5.93-24.39-8.61-34.34C154.52,271.45,154,269.2,153.42,267Z" style="opacity:0.2"></path><polygon points="187.8 393.92 173.95 396.9 173.03 392.44 188.21 388.92 187.8 393.92" style="fill:#0A6892"></polygon><polygon points="187.8 393.92 173.95 396.9 173.03 392.44 188.21 388.92 187.8 393.92" style="fill:#fff;opacity:0.30000000000000004"></polygon><polygon points="128.91 405.69 135.92 405.69 139.62 389.46 132.61 389.46 128.91 405.69" style="fill:#ffc3bd"></polygon><polygon points="130.25 399.81 132.61 389.46 139.62 389.46 137.26 399.81 130.25 399.81" style="opacity:0.2"></polygon><path d="M162.32,248.51s-2,60.51-3.94,81.08c-2.08,22.51-17.25,66.62-17.25,66.62H128.3s9.31-39.8,9.94-62.11c.72-24.94-.15-82.59-.15-82.59Z" style="fill:#263238"></path><polygon points="142.64 396.49 127.52 396.49 128.04 391.97 143.92 391.06 142.64 396.49" style="fill:#0A6892"></polygon><polygon points="142.64 396.49 127.52 396.49 128.04 391.97 143.92 391.06 142.64 396.49" style="fill:#fff;opacity:0.30000000000000004"></polygon><path d="M136.58,404.88H128a.63.63,0,0,0-.61.47L126,411.58a1,1,0,0,0,1,1.25c2.75-.05,4.76-.21,8.22-.21,2.13,0,8.55.22,11.49.22s3.36-2.9,2.16-3.17c-5.39-1.18-9.44-2.81-11.16-4.36A1.68,1.68,0,0,0,136.58,404.88Z" style="fill:#263238"></path><path d="M137.05,405.85a.17.17,0,0,1-.12-.14.15.15,0,0,1,.08-.16c.26-.16,2.53-1.55,3.3-1.15a.51.51,0,0,1,.28.47,1,1,0,0,1-.35.87,2.11,2.11,0,0,1-1.35.36A8.18,8.18,0,0,1,137.05,405.85Zm.49-.23a3.44,3.44,0,0,0,2.49-.13.69.69,0,0,0,.23-.6c0-.13-.06-.18-.1-.2a.48.48,0,0,0-.22,0A6.68,6.68,0,0,0,137.54,405.62Z" style="fill:#0A6892"></path><path d="M137,405.83a.16.16,0,0,1-.07-.16c0-.08.19-2.1,1-2.77a.91.91,0,0,1,.7-.21.54.54,0,0,1,.53.43c.14.78-1.28,2.32-2,2.71a.11.11,0,0,1-.08,0Zm1.15-2.67a4.07,4.07,0,0,0-.85,2.19c.73-.54,1.64-1.7,1.55-2.17,0,0,0-.14-.24-.16h-.07A.6.6,0,0,0,138.15,403.16Z" style="fill:#0A6892"></path><path d="M185.92,403.36l-8.46,1.2a.61.61,0,0,0-.53.56l-.56,6.37a1,1,0,0,0,1.18,1.09c2.71-.43,4.68-.87,8.11-1.36,2.11-.3,8.5-1,11.41-1.39s2.91-3.35,1.69-3.44c-5.5-.42-9.75-1.46-11.66-2.76A1.65,1.65,0,0,0,185.92,403.36Z" style="fill:#263238"></path><path d="M186.52,404.26a.17.17,0,0,1-.14-.12.15.15,0,0,1,.06-.17c.23-.2,2.29-1.89,3.1-1.61a.55.55,0,0,1,.35.43,1,1,0,0,1-.23.92,2.1,2.1,0,0,1-1.29.54A8.19,8.19,0,0,1,186.52,404.26Zm.45-.3a3.36,3.36,0,0,0,2.45-.48.69.69,0,0,0,.14-.62c0-.13-.08-.17-.13-.18a.4.4,0,0,0-.22,0A6.55,6.55,0,0,0,187,404Z" style="fill:#0A6892"></path><path d="M186.47,404.24a.14.14,0,0,1-.09-.14c0-.08-.11-2.11.61-2.89a1,1,0,0,1,.67-.31.54.54,0,0,1,.58.36c.25.75-.94,2.47-1.6,3l-.08,0A.15.15,0,0,1,186.47,404.24Zm.76-2.8a4,4,0,0,0-.53,2.29c.64-.64,1.38-1.92,1.23-2.36,0,0-.05-.14-.26-.13h-.08A.65.65,0,0,0,187.23,401.44Z" style="fill:#0A6892"></path><path d="M123.85,194A156.74,156.74,0,0,1,131,216.26c1.31,5.31,2.32,10.4,3.13,15,1.9,10.86,2.67,18,3.33,20.81,5.39-1.09,26.6-.94,37.68-3.18.26-40.24-12.75-62.43-12.75-62.43a73.71,73.71,0,0,0-9,.06c-.64,0-1.28.11-1.93.18a139.26,139.26,0,0,0-15.63,3.16c-1,.25-2,.53-2.92.81C128.07,192.17,123.85,194,123.85,194Z" style="fill:#0A6892"></path><path d="M134,172c2,4.83,4.71,13.85,1.84,17.92a15.81,15.81,0,0,0,13,2.36c4.31-1,3.95-4,2.66-5.52-5.87-.21-6.52-4.4-6.3-8.51Z" style="fill:#ffc3bd"></path><path d="M149,192.23s-1.22,2.43-2.72,4.89c-3.15-.91-10.65-3.54-11.18-7.34a3.87,3.87,0,0,1,1.45-2.13A41.54,41.54,0,0,0,149,192.23Z" style="fill:#0A6892"></path><path d="M149,192.23a20.18,20.18,0,0,1,4.55,3.34c1.75-1.86-.88-8.57-1.82-9.17a4.86,4.86,0,0,0-3-.34S152,190.73,149,192.23Z" style="fill:#0A6892"></path><g style="opacity:0.9"><path d="M149,192.23s-1.22,2.43-2.72,4.89c-3.15-.91-10.65-3.54-11.18-7.34a3.87,3.87,0,0,1,1.45-2.13A41.54,41.54,0,0,0,149,192.23Z" style="fill:#fff"></path><path d="M149,192.23a20.18,20.18,0,0,1,4.55,3.34c1.75-1.86-.88-8.57-1.82-9.17a4.86,4.86,0,0,0-3-.34S152,190.73,149,192.23Z" style="fill:#fff"></path></g><path d="M138.58,174.53l6.61,3.7a16.11,16.11,0,0,0,.05,2.87c-2.2.13-5.6-1.63-6.26-3.83A7.87,7.87,0,0,1,138.58,174.53Z" style="opacity:0.2"></path><path d="M145.07,152.78c1.91,2.09,5.54,9,1.36,9S141.79,149.2,145.07,152.78Z" style="fill:#263238"></path><path d="M130.7,166c2.56,6.45,3.72,10.37,8.15,12.63,6.67,3.41,13.81-2.35,13.23-9.46-.52-6.41-4.61-15.89-11.91-16.35A9.59,9.59,0,0,0,130.7,166Z" style="fill:#ffc3bd"></path><path d="M129.73,146.51c2,1.45,2.14,5.42-.85,6.13-4.76,1.12-6.44,3.69-4.26,7.47-3.18,4,1.78,9.51,8.81,10.08,1.91-3.86-1.17-9.57-1.17-9.57,3.53-.07,8-5,11.9-7,4.34-2.16,5.73-9.23-1.48-10.62-7.42-1.43-13.8,2.4-15.15-2.78C127.53,140.22,126.79,144.38,129.73,146.51Z" style="fill:#263238"></path><path d="M141.29,164.48c.17.54.6.88,1,.76s.49-.65.32-1.19-.6-.87-.95-.75S141.11,164,141.29,164.48Z" style="fill:#263238"></path><path d="M147.35,162.44c.17.54.6.88,1,.76s.49-.65.32-1.19-.6-.87-1-.76S147.17,161.9,147.35,162.44Z" style="fill:#263238"></path><path d="M145.51,163.36a19.37,19.37,0,0,0,4.05,3.55,3.37,3.37,0,0,1-2.41,1.29Z" style="fill:#ff847f"></path><path d="M145,171.22a4,4,0,0,0,.71-.19.16.16,0,0,0,.11-.21.17.17,0,0,0-.21-.1,4.42,4.42,0,0,1-4-.5.17.17,0,0,0-.23,0,.15.15,0,0,0,0,.23A4.51,4.51,0,0,0,145,171.22Z" style="fill:#263238"></path><path d="M138.78,163.15a.33.33,0,0,0,.25-.22,2.67,2.67,0,0,1,1.68-1.73.34.34,0,0,0,.24-.41.34.34,0,0,0-.4-.24,3.33,3.33,0,0,0-2.14,2.17.32.32,0,0,0,.37.43Z" style="fill:#263238"></path><path d="M149.28,159.47a.32.32,0,0,0,.17-.09.34.34,0,0,0,0-.47,3.27,3.27,0,0,0-2.84-1,.34.34,0,0,0-.27.39.33.33,0,0,0,.39.26,2.56,2.56,0,0,1,2.24.83A.33.33,0,0,0,149.28,159.47Z" style="fill:#263238"></path><path d="M150.61,193.45s2.22-4.34,3.54-4.07c.85.18,1.54,2.54,1.92,3.33s1.58,2.28,1.11,3.06c-.65,1.09-5.08-.37-5.08-.37l-1.84.58s-3.13,4.44-4.42,4.05c-.85-.26-1-2.72-1.33-3.53s-2.36-2.12-1.92-3.05c.64-1.32,6.7.4,6.7.4Z" style="fill:#263238"></path><polygon points="134.46 158.94 132.5 167.81 133.21 168.2 135.2 160.14 134.46 158.94" style="fill:#0A6892"></polygon><path d="M145.53,158.37a5.35,5.35,0,0,0,4-2c.56-1,.41-4.12-.62-4.67-1.65-.88-6.38,1.43-6.69,3.27C142,156.17,144.37,158.17,145.53,158.37Z" style="fill:#0A6892"></path><path d="M137.45,162.32a5.33,5.33,0,0,0,4-2c.56-1,.42-4.12-.62-4.67-1.64-.88-6.43,1.43-6.69,3.27C134,160.13,136.29,162.12,137.45,162.32Z" style="fill:#0A6892"></path><rect x="138.83" y="155.03" width="5.49" height="1.12" transform="translate(-53.97 78.03) rotate(-26.07)" style="fill:#0A6892"></rect><path d="M145.7,157.71a4.26,4.26,0,0,0,3.21-1.57c.45-.83.34-3.29-.5-3.73-1.31-.7-5.1,1.15-5.35,2.62C142.9,156,144.78,157.55,145.7,157.71Z" style="fill:#263238"></path><path d="M137.63,161.66a4.26,4.26,0,0,0,3.21-1.57c.44-.83.33-3.29-.5-3.73-1.32-.7-5.14,1.14-5.36,2.62C134.85,159.91,136.7,161.5,137.63,161.66Z" style="fill:#263238"></path><path d="M130,172.33a6.51,6.51,0,0,0,4.28,2.62c2.29.34,3.16-1.79,2.3-3.81-.78-1.81-2.91-4.17-5.09-3.58A3,3,0,0,0,130,172.33Z" style="fill:#ffc3bd"></path><path d="M126.75,201.65l.57-1.6,2-2.46,2.58,3.69A89.12,89.12,0,0,1,132,220.5c-.31-1.39-.64-2.81-1-4.24C129.85,211.5,128.44,206.57,126.75,201.65Z" style="fill:#263238;opacity:0.2"></path><path d="M120.55,200.12c-.72,2.52-1.26,4.92-1.81,7.4s-1,5-1.38,7.49-.7,5.08-.85,7.72a40.07,40.07,0,0,0,.24,8.4,19.38,19.38,0,0,0,.53,2.45c.14.43.29.88.49,1.36.1.24.2.47.33.73l.2.38.27.45a9,9,0,0,0,2.72,2.71,10.9,10.9,0,0,0,2.8,1.25,18,18,0,0,0,4.78.69,31.65,31.65,0,0,0,4.2-.24,58.7,58.7,0,0,0,15-4.07l-1.42-5.06-3.53.39c-1.19.12-2.38.21-3.55.3-2.35.17-4.68.27-6.89.21a25.62,25.62,0,0,1-3.15-.28,8.39,8.39,0,0,1-2.43-.64,1.72,1.72,0,0,1-.51-.33c0-.07.06,0,.18.09l0,.06s0,0,0,0l0-.12-.08-.38a8.21,8.21,0,0,1-.15-1.17,35.21,35.21,0,0,1,.24-6.28c.27-2.25.61-4.55,1-6.86.84-4.6,1.9-9.34,3-13.85Z" style="fill:#ffc3bd"></path><path d="M121.63,195.07c-4.69,3.3-5.39,20.34-5.39,20.34l12,1.77s3.47-7.57,3.64-15C132.07,194.12,127.31,191.07,121.63,195.07Z" style="fill:#0A6892"></path><path d="M144.88,232l5-5.05,3.11,8.43s-5.2,3.35-7.27.76Z" style="fill:#ffc3bd"></path><polygon points="155.66 226.2 157.9 233.29 152.99 235.38 149.88 226.95 155.66 226.2" style="fill:#ffc3bd"></polygon><polygon points="130.1 215.16 128.1 218.53 115.53 217.23 115.27 212.89 130.1 215.16" style="fill:#0A6892"></polygon><polygon points="130.1 215.16 128.1 218.53 115.53 217.23 115.27 212.89 130.1 215.16" style="fill:#fff;opacity:0.9"></polygon><path d="M154.54,226.47l6.59-2a4,4,0,0,1-.19,1.59c-1.1,1.38-6.66,2.37-6.66,2.37Z" style="fill:#ffc3bd"></path><path d="M215.47,120.62H74.05L99.64,413.13H241.07ZM110.52,401.21,87,132.55H204.59l23.5,268.66Z" style="fill:#0A6892"></path><polygon points="102.31 413.13 95.33 413.13 69.73 120.62 76.72 120.62 102.31 413.13" style="fill:#0A6892"></polygon><polygon points="102.31 413.13 95.33 413.13 69.73 120.62 76.72 120.62 102.31 413.13" style="fill:#fff;opacity:0.5"></polygon><polygon points="81 344.74 59.25 412.65 71.56 412.88 83.65 375.11 81 344.74" style="fill:#fff;opacity:0.5"></polygon><path d="M92.93,148.17A4.86,4.86,0,0,1,88,153.56a6,6,0,0,1-5.87-5.39,4.87,4.87,0,0,1,4.92-5.4A6,6,0,0,1,92.93,148.17Z" style="fill:#0A6892"></path><path d="M91,126.58a4.87,4.87,0,0,1-4.92,5.4,6,6,0,0,1-5.87-5.4,4.86,4.86,0,0,1,4.92-5.39A6,6,0,0,1,91,126.58Z" style="fill:#0A6892"></path><path d="M94.82,169.75a4.87,4.87,0,0,1-4.93,5.4,6,6,0,0,1-5.86-5.4A4.86,4.86,0,0,1,89,164.36,6,6,0,0,1,94.82,169.75Z" style="fill:#0A6892"></path><path d="M96.71,191.33a4.87,4.87,0,0,1-4.93,5.4,6,6,0,0,1-5.87-5.4,4.87,4.87,0,0,1,4.93-5.39A6,6,0,0,1,96.71,191.33Z" style="fill:#0A6892"></path><path d="M98.59,212.92a4.86,4.86,0,0,1-4.92,5.39,6,6,0,0,1-5.87-5.39,4.87,4.87,0,0,1,4.93-5.4A6,6,0,0,1,98.59,212.92Z" style="fill:#0A6892"></path><path d="M100.48,234.5a4.87,4.87,0,0,1-4.92,5.4,6,6,0,0,1-5.87-5.4,4.86,4.86,0,0,1,4.92-5.39A6,6,0,0,1,100.48,234.5Z" style="fill:#0A6892"></path><path d="M102.37,256.09a4.86,4.86,0,0,1-4.92,5.39,6,6,0,0,1-5.87-5.39,4.87,4.87,0,0,1,4.92-5.4A6,6,0,0,1,102.37,256.09Z" style="fill:#0A6892"></path><path d="M104.26,277.67a4.86,4.86,0,0,1-4.92,5.39,6,6,0,0,1-5.87-5.39,4.87,4.87,0,0,1,4.92-5.4A6,6,0,0,1,104.26,277.67Z" style="fill:#0A6892"></path><path d="M106.15,299.25a4.87,4.87,0,0,1-4.93,5.4,6,6,0,0,1-5.86-5.4,4.85,4.85,0,0,1,4.92-5.39A6,6,0,0,1,106.15,299.25Z" style="fill:#0A6892"></path><path d="M108,320.84a4.87,4.87,0,0,1-4.93,5.39,6,6,0,0,1-5.87-5.39,4.87,4.87,0,0,1,4.93-5.4A6,6,0,0,1,108,320.84Z" style="fill:#0A6892"></path><path d="M109.92,342.42a4.87,4.87,0,0,1-4.92,5.4,6,6,0,0,1-5.87-5.4,4.87,4.87,0,0,1,4.93-5.4A6,6,0,0,1,109.92,342.42Z" style="fill:#0A6892"></path><path d="M111.81,364a4.87,4.87,0,0,1-4.92,5.4A6,6,0,0,1,101,364a4.86,4.86,0,0,1,4.92-5.39A6,6,0,0,1,111.81,364Z" style="fill:#0A6892"></path><path d="M113.7,385.59a4.86,4.86,0,0,1-4.92,5.39,6,6,0,0,1-5.87-5.39,4.87,4.87,0,0,1,4.92-5.4A6,6,0,0,1,113.7,385.59Z" style="fill:#0A6892"></path><path d="M115.59,407.17a4.87,4.87,0,0,1-4.92,5.4,6,6,0,0,1-5.87-5.4,4.87,4.87,0,0,1,4.92-5.4A6,6,0,0,1,115.59,407.17Z" style="fill:#0A6892"></path><path d="M222.43,148.17a4.86,4.86,0,0,1-4.92,5.39,6,6,0,0,1-5.87-5.39,4.87,4.87,0,0,1,4.92-5.4A6,6,0,0,1,222.43,148.17Z" style="fill:#0A6892"></path><path d="M220.54,126.58a4.87,4.87,0,0,1-4.92,5.4,6,6,0,0,1-5.87-5.4,4.86,4.86,0,0,1,4.92-5.39A6,6,0,0,1,220.54,126.58Z" style="fill:#0A6892"></path><path d="M224.32,169.75a4.87,4.87,0,0,1-4.93,5.4,6,6,0,0,1-5.86-5.4,4.86,4.86,0,0,1,4.92-5.39A6,6,0,0,1,224.32,169.75Z" style="fill:#0A6892"></path><path d="M226.21,191.33a4.87,4.87,0,0,1-4.93,5.4,6,6,0,0,1-5.87-5.4,4.87,4.87,0,0,1,4.93-5.39A6,6,0,0,1,226.21,191.33Z" style="fill:#0A6892"></path><path d="M228.09,212.92a4.85,4.85,0,0,1-4.92,5.39,6,6,0,0,1-5.87-5.39,4.87,4.87,0,0,1,4.93-5.4A6,6,0,0,1,228.09,212.92Z" style="fill:#0A6892"></path><path d="M230,234.5a4.87,4.87,0,0,1-4.92,5.4,6,6,0,0,1-5.87-5.4,4.87,4.87,0,0,1,4.93-5.39A6,6,0,0,1,230,234.5Z" style="fill:#0A6892"></path><path d="M231.87,256.09a4.86,4.86,0,0,1-4.92,5.39,6,6,0,0,1-5.87-5.39,4.87,4.87,0,0,1,4.92-5.4A6,6,0,0,1,231.87,256.09Z" style="fill:#0A6892"></path><path d="M233.76,277.67a4.86,4.86,0,0,1-4.92,5.39,6,6,0,0,1-5.87-5.39,4.87,4.87,0,0,1,4.92-5.4A6,6,0,0,1,233.76,277.67Z" style="fill:#0A6892"></path><path d="M235.65,299.25a4.87,4.87,0,0,1-4.93,5.4,6,6,0,0,1-5.86-5.4,4.86,4.86,0,0,1,4.92-5.39A6,6,0,0,1,235.65,299.25Z" style="fill:#0A6892"></path><path d="M237.54,320.84a4.87,4.87,0,0,1-4.93,5.39,6,6,0,0,1-5.87-5.39,4.87,4.87,0,0,1,4.93-5.4A6,6,0,0,1,237.54,320.84Z" style="fill:#0A6892"></path><path d="M239.42,342.42a4.86,4.86,0,0,1-4.92,5.4,6,6,0,0,1-5.87-5.4,4.87,4.87,0,0,1,4.93-5.4A6,6,0,0,1,239.42,342.42Z" style="fill:#0A6892"></path><path d="M241.31,364a4.87,4.87,0,0,1-4.92,5.4,6,6,0,0,1-5.87-5.4,4.87,4.87,0,0,1,4.93-5.39A6,6,0,0,1,241.31,364Z" style="fill:#0A6892"></path><path d="M243.2,385.59a4.86,4.86,0,0,1-4.92,5.39,6,6,0,0,1-5.87-5.39,4.87,4.87,0,0,1,4.92-5.4A6,6,0,0,1,243.2,385.59Z" style="fill:#0A6892"></path><path d="M245.09,407.17a4.87,4.87,0,0,1-4.92,5.4,6,6,0,0,1-5.87-5.4,4.87,4.87,0,0,1,4.92-5.4A6,6,0,0,1,245.09,407.17Z" style="fill:#0A6892"></path><path d="M106.76,121.19a6,6,0,0,1,5.86,5.39,4.86,4.86,0,0,1-4.92,5.4,6,6,0,0,1-5.87-5.4A4.87,4.87,0,0,1,106.76,121.19Z" style="fill:#0A6892"></path><path d="M128.34,121.19a6,6,0,0,1,5.87,5.39,4.87,4.87,0,0,1-4.93,5.4,6,6,0,0,1-5.86-5.4A4.86,4.86,0,0,1,128.34,121.19Z" style="fill:#0A6892"></path><path d="M149.92,121.19a6,6,0,0,1,5.87,5.39,4.87,4.87,0,0,1-4.92,5.4,6,6,0,0,1-5.87-5.4A4.86,4.86,0,0,1,149.92,121.19Z" style="fill:#0A6892"></path><path d="M171.51,121.19a6,6,0,0,1,5.86,5.39,4.86,4.86,0,0,1-4.92,5.4,6,6,0,0,1-5.87-5.4A4.87,4.87,0,0,1,171.51,121.19Z" style="fill:#0A6892"></path><path d="M193.09,121.19a6,6,0,0,1,5.87,5.39A4.87,4.87,0,0,1,194,132a6,6,0,0,1-5.86-5.4A4.86,4.86,0,0,1,193.09,121.19Z" style="fill:#0A6892"></path><g style="opacity:0.7000000000000001"><path d="M92.93,148.17A4.86,4.86,0,0,1,88,153.56a6,6,0,0,1-5.87-5.39,4.87,4.87,0,0,1,4.92-5.4A6,6,0,0,1,92.93,148.17Z" style="fill:#fff"></path><path d="M91,126.58a4.87,4.87,0,0,1-4.92,5.4,6,6,0,0,1-5.87-5.4,4.86,4.86,0,0,1,4.92-5.39A6,6,0,0,1,91,126.58Z" style="fill:#fff"></path><path d="M94.82,169.75a4.87,4.87,0,0,1-4.93,5.4,6,6,0,0,1-5.86-5.4A4.86,4.86,0,0,1,89,164.36,6,6,0,0,1,94.82,169.75Z" style="fill:#fff"></path><path d="M96.71,191.33a4.87,4.87,0,0,1-4.93,5.4,6,6,0,0,1-5.87-5.4,4.87,4.87,0,0,1,4.93-5.39A6,6,0,0,1,96.71,191.33Z" style="fill:#fff"></path><path d="M98.59,212.92a4.86,4.86,0,0,1-4.92,5.39,6,6,0,0,1-5.87-5.39,4.87,4.87,0,0,1,4.93-5.4A6,6,0,0,1,98.59,212.92Z" style="fill:#fff"></path><path d="M100.48,234.5a4.87,4.87,0,0,1-4.92,5.4,6,6,0,0,1-5.87-5.4,4.86,4.86,0,0,1,4.92-5.39A6,6,0,0,1,100.48,234.5Z" style="fill:#fff"></path><path d="M102.37,256.09a4.86,4.86,0,0,1-4.92,5.39,6,6,0,0,1-5.87-5.39,4.87,4.87,0,0,1,4.92-5.4A6,6,0,0,1,102.37,256.09Z" style="fill:#fff"></path><path d="M104.26,277.67a4.86,4.86,0,0,1-4.92,5.39,6,6,0,0,1-5.87-5.39,4.87,4.87,0,0,1,4.92-5.4A6,6,0,0,1,104.26,277.67Z" style="fill:#fff"></path><path d="M106.15,299.25a4.87,4.87,0,0,1-4.93,5.4,6,6,0,0,1-5.86-5.4,4.85,4.85,0,0,1,4.92-5.39A6,6,0,0,1,106.15,299.25Z" style="fill:#fff"></path><path d="M108,320.84a4.87,4.87,0,0,1-4.93,5.39,6,6,0,0,1-5.87-5.39,4.87,4.87,0,0,1,4.93-5.4A6,6,0,0,1,108,320.84Z" style="fill:#fff"></path><path d="M109.92,342.42a4.87,4.87,0,0,1-4.92,5.4,6,6,0,0,1-5.87-5.4,4.87,4.87,0,0,1,4.93-5.4A6,6,0,0,1,109.92,342.42Z" style="fill:#fff"></path><path d="M111.81,364a4.87,4.87,0,0,1-4.92,5.4A6,6,0,0,1,101,364a4.86,4.86,0,0,1,4.92-5.39A6,6,0,0,1,111.81,364Z" style="fill:#fff"></path><path d="M113.7,385.59a4.86,4.86,0,0,1-4.92,5.39,6,6,0,0,1-5.87-5.39,4.87,4.87,0,0,1,4.92-5.4A6,6,0,0,1,113.7,385.59Z" style="fill:#fff"></path><path d="M115.59,407.17a4.87,4.87,0,0,1-4.92,5.4,6,6,0,0,1-5.87-5.4,4.87,4.87,0,0,1,4.92-5.4A6,6,0,0,1,115.59,407.17Z" style="fill:#fff"></path><path d="M222.43,148.17a4.86,4.86,0,0,1-4.92,5.39,6,6,0,0,1-5.87-5.39,4.87,4.87,0,0,1,4.92-5.4A6,6,0,0,1,222.43,148.17Z" style="fill:#fff"></path><path d="M220.54,126.58a4.87,4.87,0,0,1-4.92,5.4,6,6,0,0,1-5.87-5.4,4.86,4.86,0,0,1,4.92-5.39A6,6,0,0,1,220.54,126.58Z" style="fill:#fff"></path><path d="M224.32,169.75a4.87,4.87,0,0,1-4.93,5.4,6,6,0,0,1-5.86-5.4,4.86,4.86,0,0,1,4.92-5.39A6,6,0,0,1,224.32,169.75Z" style="fill:#fff"></path><path d="M226.21,191.33a4.87,4.87,0,0,1-4.93,5.4,6,6,0,0,1-5.87-5.4,4.87,4.87,0,0,1,4.93-5.39A6,6,0,0,1,226.21,191.33Z" style="fill:#fff"></path><path d="M228.09,212.92a4.85,4.85,0,0,1-4.92,5.39,6,6,0,0,1-5.87-5.39,4.87,4.87,0,0,1,4.93-5.4A6,6,0,0,1,228.09,212.92Z" style="fill:#fff"></path><path d="M230,234.5a4.87,4.87,0,0,1-4.92,5.4,6,6,0,0,1-5.87-5.4,4.87,4.87,0,0,1,4.93-5.39A6,6,0,0,1,230,234.5Z" style="fill:#fff"></path><path d="M231.87,256.09a4.86,4.86,0,0,1-4.92,5.39,6,6,0,0,1-5.87-5.39,4.87,4.87,0,0,1,4.92-5.4A6,6,0,0,1,231.87,256.09Z" style="fill:#fff"></path><path d="M233.76,277.67a4.86,4.86,0,0,1-4.92,5.39,6,6,0,0,1-5.87-5.39,4.87,4.87,0,0,1,4.92-5.4A6,6,0,0,1,233.76,277.67Z" style="fill:#fff"></path><path d="M235.65,299.25a4.87,4.87,0,0,1-4.93,5.4,6,6,0,0,1-5.86-5.4,4.86,4.86,0,0,1,4.92-5.39A6,6,0,0,1,235.65,299.25Z" style="fill:#fff"></path><path d="M237.54,320.84a4.87,4.87,0,0,1-4.93,5.39,6,6,0,0,1-5.87-5.39,4.87,4.87,0,0,1,4.93-5.4A6,6,0,0,1,237.54,320.84Z" style="fill:#fff"></path><path d="M239.42,342.42a4.86,4.86,0,0,1-4.92,5.4,6,6,0,0,1-5.87-5.4,4.87,4.87,0,0,1,4.93-5.4A6,6,0,0,1,239.42,342.42Z" style="fill:#fff"></path><path d="M241.31,364a4.87,4.87,0,0,1-4.92,5.4,6,6,0,0,1-5.87-5.4,4.87,4.87,0,0,1,4.93-5.39A6,6,0,0,1,241.31,364Z" style="fill:#fff"></path><path d="M243.2,385.59a4.86,4.86,0,0,1-4.92,5.39,6,6,0,0,1-5.87-5.39,4.87,4.87,0,0,1,4.92-5.4A6,6,0,0,1,243.2,385.59Z" style="fill:#fff"></path><path d="M245.09,407.17a4.87,4.87,0,0,1-4.92,5.4,6,6,0,0,1-5.87-5.4,4.87,4.87,0,0,1,4.92-5.4A6,6,0,0,1,245.09,407.17Z" style="fill:#fff"></path><path d="M106.76,121.19a6,6,0,0,1,5.86,5.39,4.86,4.86,0,0,1-4.92,5.4,6,6,0,0,1-5.87-5.4A4.87,4.87,0,0,1,106.76,121.19Z" style="fill:#fff"></path><path d="M128.34,121.19a6,6,0,0,1,5.87,5.39,4.87,4.87,0,0,1-4.93,5.4,6,6,0,0,1-5.86-5.4A4.86,4.86,0,0,1,128.34,121.19Z" style="fill:#fff"></path><path d="M149.92,121.19a6,6,0,0,1,5.87,5.39,4.87,4.87,0,0,1-4.92,5.4,6,6,0,0,1-5.87-5.4A4.86,4.86,0,0,1,149.92,121.19Z" style="fill:#fff"></path><path d="M171.51,121.19a6,6,0,0,1,5.86,5.39,4.86,4.86,0,0,1-4.92,5.4,6,6,0,0,1-5.87-5.4A4.87,4.87,0,0,1,171.51,121.19Z" style="fill:#fff"></path><path d="M193.09,121.19a6,6,0,0,1,5.87,5.39A4.87,4.87,0,0,1,194,132a6,6,0,0,1-5.86-5.4A4.86,4.86,0,0,1,193.09,121.19Z" style="fill:#fff"></path></g><path d="M131.3,401.77a6,6,0,0,1,5.87,5.4,4.87,4.87,0,0,1-4.92,5.4,6,6,0,0,1-5.87-5.4A4.87,4.87,0,0,1,131.3,401.77Z" style="fill:#0A6892"></path><path d="M152.89,401.77a6,6,0,0,1,5.87,5.4,4.87,4.87,0,0,1-4.93,5.4,6,6,0,0,1-5.87-5.4A4.87,4.87,0,0,1,152.89,401.77Z" style="fill:#0A6892"></path><path d="M174.47,401.77a6,6,0,0,1,5.87,5.4,4.87,4.87,0,0,1-4.92,5.4,6,6,0,0,1-5.87-5.4A4.87,4.87,0,0,1,174.47,401.77Z" style="fill:#0A6892"></path><path d="M196.05,401.77a6,6,0,0,1,5.87,5.4,4.87,4.87,0,0,1-4.92,5.4,6,6,0,0,1-5.87-5.4A4.87,4.87,0,0,1,196.05,401.77Z" style="fill:#0A6892"></path><path d="M217.64,401.77a6,6,0,0,1,5.87,5.4,4.87,4.87,0,0,1-4.93,5.4,6,6,0,0,1-5.87-5.4A4.87,4.87,0,0,1,217.64,401.77Z" style="fill:#0A6892"></path><g style="opacity:0.8"><path d="M131.3,401.77a6,6,0,0,1,5.87,5.4,4.87,4.87,0,0,1-4.92,5.4,6,6,0,0,1-5.87-5.4A4.87,4.87,0,0,1,131.3,401.77Z" style="fill:#fff"></path><path d="M152.89,401.77a6,6,0,0,1,5.87,5.4,4.87,4.87,0,0,1-4.93,5.4,6,6,0,0,1-5.87-5.4A4.87,4.87,0,0,1,152.89,401.77Z" style="fill:#fff"></path><path d="M174.47,401.77a6,6,0,0,1,5.87,5.4,4.87,4.87,0,0,1-4.92,5.4,6,6,0,0,1-5.87-5.4A4.87,4.87,0,0,1,174.47,401.77Z" style="fill:#fff"></path><path d="M196.05,401.77a6,6,0,0,1,5.87,5.4,4.87,4.87,0,0,1-4.92,5.4,6,6,0,0,1-5.87-5.4A4.87,4.87,0,0,1,196.05,401.77Z" style="fill:#fff"></path><path d="M217.64,401.77a6,6,0,0,1,5.87,5.4,4.87,4.87,0,0,1-4.93,5.4,6,6,0,0,1-5.87-5.4A4.87,4.87,0,0,1,217.64,401.77Z" style="fill:#fff"></path></g><polygon points="192.19 132.55 187.46 401.21 177.11 401.21 181.84 132.55 192.19 132.55" style="fill:#fff;opacity:0.30000000000000004"></polygon><polygon points="171.13 132.55 166.4 401.21 124.37 401.21 129.1 132.55 171.13 132.55" style="fill:#fff;opacity:0.2"></polygon></g><g id="freepik--character-1--inject-24"><path d="M296.69,197.05c-2.14,3.28-4.34,6.54-6.57,9.77l-6.69,9.66c-1.09,1.6-2.23,3.19-3.27,4.76a14.85,14.85,0,0,1-2.86,3.21,10.07,10.07,0,0,1-4.7,2.21,9.23,9.23,0,0,1-2.67.06,10.32,10.32,0,0,1-2.33-.58,12.74,12.74,0,0,1-3.5-2.09,17.14,17.14,0,0,1-2.5-2.55c-.36-.44-.69-.9-1-1.37s-.58-.92-.91-1.51l4.17-3.2,1,.73c.36.25.72.49,1.08.71a14.67,14.67,0,0,0,2.12,1.13,5.22,5.22,0,0,0,1.8.47c.49,0,.74-.09.84-.23s.21-.24.43-.56a14.61,14.61,0,0,0,.81-1.41c1-1.8,2-3.52,3-5.23q3.07-5.13,6.3-10.1c1.08-1.66,2.16-3.32,3.27-5s2.2-3.28,3.36-4.9Z" style="fill:#ffc3bd"></path><path d="M300.08,192.11c1,6-12.67,20.11-12.67,20.11L278,203.85s2.75-8.39,8.23-13.88C291.9,184.34,299,185.58,300.08,192.11Z" style="fill:#0A6892"></path><path d="M287.41,212.22a96.41,96.41,0,0,0,8.81-10.69l-3.91-4.41h-4.09a72.27,72.27,0,0,0-6,10.49Z" style="fill:#263238;opacity:0.2"></path><polygon points="277.33 202.79 276.03 206.49 285.11 215.27 288.61 212.68 277.33 202.79" style="fill:#0A6892"></polygon><polygon points="277.33 202.79 276.03 206.49 285.11 215.27 288.61 212.68 277.33 202.79" style="fill:#fff;opacity:0.9"></polygon><path d="M264.1,215.6,259,210.52l-2.44,7.54s4.88,4.11,6.9,1.5Z" style="fill:#ffc3bd"></path><polygon points="252.03 209.03 252.13 216.22 256.51 218.06 258.95 210.52 252.03 209.03" style="fill:#ffc3bd"></polygon><path d="M253.47,209.38l-6.62-1.84s0,1.27.21,1.58c1.12,1.37,6.7,2.26,6.7,2.26Z" style="fill:#ffc3bd"></path><polygon points="277.37 405.49 270.52 403.91 272.19 387.68 279.04 389.25 277.37 405.49" style="fill:#7f3e3b"></polygon><polygon points="277.37 405.49 270.52 403.91 272.19 387.68 279.04 389.25 277.37 405.49" style="fill:#ffc3bd"></polygon><polygon points="278.02 399.17 279.04 389.25 272.19 387.68 271.17 397.6 278.02 399.17" style="opacity:0.2"></polygon><path d="M269.12,393.88l11.59,2.67s4-39.24,6-61a227.67,227.67,0,0,1,4.53-25.65c2.76-12.39,6.22-25.79,9.05-36.29,3-11,5.27-23.13,5.27-23.13L281,248.6s-11.86,59.19-13.42,80.51C265.93,351.28,269.12,393.88,269.12,393.88Z" style="fill:#263238"></path><path d="M302,267l-2.6-5.61c-6.76,8-8.76,32.1-7.7,46.58,2.68-11.84,5.92-24.39,8.61-34.34C300.9,271.45,301.47,269.2,302,267Z" style="opacity:0.2"></path><polygon points="267.62 393.92 281.47 396.9 282.39 392.44 267.21 388.92 267.62 393.92" style="fill:#0A6892"></polygon><polygon points="267.62 393.92 281.47 396.9 282.39 392.44 267.21 388.92 267.62 393.92" style="fill:#fff;opacity:0.30000000000000004"></polygon><polygon points="326.51 405.69 319.5 405.69 315.8 389.46 322.81 389.46 326.51 405.69" style="fill:#ffc3bd"></polygon><polygon points="325.17 399.81 322.81 389.46 315.8 389.46 318.16 399.81 325.17 399.81" style="opacity:0.2"></polygon><path d="M293.09,248.51s2.05,60.51,4,81.08c2.08,22.51,17.24,66.62,17.24,66.62h12.84s-9.31-39.8-9.95-62.11c-.71-24.94.15-82.59.15-82.59Z" style="fill:#263238"></path><polygon points="312.78 396.49 327.89 396.49 327.37 391.97 311.5 391.06 312.78 396.49" style="fill:#0A6892"></polygon><polygon points="312.78 396.49 327.89 396.49 327.37 391.97 311.5 391.06 312.78 396.49" style="fill:#fff;opacity:0.30000000000000004"></polygon><path d="M318.84,404.88h8.54a.61.61,0,0,1,.6.47l1.45,6.23a1,1,0,0,1-1,1.25c-2.75-.05-4.76-.21-8.22-.21-2.13,0-8.56.22-11.5.22s-3.35-2.9-2.15-3.17c5.39-1.18,9.44-2.81,11.15-4.36A1.7,1.7,0,0,1,318.84,404.88Z" style="fill:#263238"></path><path d="M316.53,406.1a2.11,2.11,0,0,1-1.35-.36,1,1,0,0,1-.35-.87.51.51,0,0,1,.28-.47c.77-.4,3,1,3.3,1.15a.15.15,0,0,1,.08.16.17.17,0,0,1-.13.14A8,8,0,0,1,316.53,406.1Zm-1-1.45a.48.48,0,0,0-.22,0,.2.2,0,0,0-.1.2.66.66,0,0,0,.23.6,3.44,3.44,0,0,0,2.49.13A6.83,6.83,0,0,0,315.48,404.65Z" style="fill:#0A6892"></path><path d="M318.32,405.85a.13.13,0,0,1-.08,0c-.72-.39-2.14-1.93-2-2.71a.53.53,0,0,1,.52-.43.93.93,0,0,1,.71.21c.82.67,1,2.69,1,2.77a.19.19,0,0,1-.08.16ZM316.88,403h-.07c-.22,0-.24.12-.25.16-.08.47.83,1.63,1.55,2.17a3.91,3.91,0,0,0-.85-2.19A.57.57,0,0,0,316.88,403Z" style="fill:#0A6892"></path><path d="M269.5,403.36l8.46,1.2a.63.63,0,0,1,.53.56l.56,6.37a1,1,0,0,1-1.18,1.09c-2.72-.43-4.68-.87-8.11-1.36-2.11-.3-8.5-1-11.41-1.39s-2.92-3.35-1.69-3.44c5.5-.42,9.74-1.46,11.66-2.76A1.63,1.63,0,0,1,269.5,403.36Z" style="fill:#263238"></path><path d="M267.05,404.25a2.1,2.1,0,0,1-1.29-.54,1,1,0,0,1-.23-.92.55.55,0,0,1,.34-.43c.82-.28,2.88,1.41,3.11,1.61a.18.18,0,0,1,.06.17.17.17,0,0,1-.15.12A8.1,8.1,0,0,1,267.05,404.25Zm-.85-1.58a.4.4,0,0,0-.22,0s-.1.05-.12.18a.64.64,0,0,0,.14.62,3.36,3.36,0,0,0,2.45.48A6.58,6.58,0,0,0,266.2,402.67Z" style="fill:#0A6892"></path><path d="M268.85,404.26l-.07,0c-.67-.5-1.86-2.22-1.61-3a.54.54,0,0,1,.58-.36.92.92,0,0,1,.67.31c.72.78.63,2.81.62,2.89a.16.16,0,0,1-.09.14A.16.16,0,0,1,268.85,404.26Zm-1-3h-.07c-.22,0-.25.09-.26.13-.15.44.58,1.72,1.23,2.36a4.11,4.11,0,0,0-.54-2.29A.59.59,0,0,0,267.82,401.24Z" style="fill:#0A6892"></path><path d="M331.57,194a156.74,156.74,0,0,0-7.18,22.31c-1.31,5.31-2.33,10.4-3.14,15-1.89,10.86-2.66,18-3.33,20.81-5.39-1.09-26.6-.94-37.67-3.18C280,208.69,293,186.5,293,186.5a73.9,73.9,0,0,1,9,.06c.63,0,1.28.11,1.93.18a139.26,139.26,0,0,1,15.63,3.16c1,.25,2,.53,2.92.81C327.35,192.17,331.57,194,331.57,194Z" style="fill:#0A6892"></path><path d="M321.39,172c-1.95,4.83-4.71,13.85-1.83,17.92a15.82,15.82,0,0,1-13,2.36c-4.3-1-3.94-4-2.65-5.52,5.86-.21,6.52-4.4,6.29-8.51Z" style="fill:#ffc3bd"></path><path d="M306.47,192.23s1.21,2.43,2.71,4.89c3.16-.91,10.66-3.54,11.18-7.34a3.87,3.87,0,0,0-1.44-2.13A41.54,41.54,0,0,1,306.47,192.23Z" style="fill:#0A6892"></path><path d="M306.47,192.23a20.12,20.12,0,0,0-4.56,3.34c-1.74-1.86.89-8.57,1.82-9.17a4.85,4.85,0,0,1,3-.34S303.38,190.73,306.47,192.23Z" style="fill:#0A6892"></path><g style="opacity:0.9"><path d="M306.47,192.23s1.21,2.43,2.71,4.89c3.16-.91,10.66-3.54,11.18-7.34a3.87,3.87,0,0,0-1.44-2.13A41.54,41.54,0,0,1,306.47,192.23Z" style="fill:#fff"></path><path d="M306.47,192.23a20.12,20.12,0,0,0-4.56,3.34c-1.74-1.86.89-8.57,1.82-9.17a4.85,4.85,0,0,1,3-.34S303.38,190.73,306.47,192.23Z" style="fill:#fff"></path></g><path d="M316.84,174.53l-6.61,3.7a17.1,17.1,0,0,1-.05,2.87c2.2.13,5.59-1.63,6.25-3.83A7.69,7.69,0,0,0,316.84,174.53Z" style="opacity:0.2"></path><path d="M310.34,152.78c-1.91,2.09-5.53,9-1.35,9S313.63,149.2,310.34,152.78Z" style="fill:#263238"></path><path d="M324.72,166c-2.56,6.45-3.73,10.37-8.16,12.63-6.66,3.41-13.8-2.35-13.22-9.46.51-6.41,4.61-15.89,11.91-16.35A9.59,9.59,0,0,1,324.72,166Z" style="fill:#ffc3bd"></path><path d="M325.69,146.51c-2,1.45-2.15,5.42.84,6.13,4.76,1.12,6.45,3.69,4.26,7.47,3.19,4-1.77,9.51-8.81,10.08-1.91-3.86,1.18-9.57,1.18-9.57-3.53-.07-8-5-11.9-7-4.34-2.16-5.74-9.23,1.48-10.62,7.41-1.43,13.79,2.4,15.14-2.78C327.88,140.22,328.62,144.38,325.69,146.51Z" style="fill:#263238"></path><path d="M314.13,164.48c-.18.54-.6.88-.95.76s-.5-.65-.32-1.19.6-.87.95-.75S314.3,164,314.13,164.48Z" style="fill:#263238"></path><path d="M308.07,162.44c-.18.54-.6.88-.95.76s-.5-.65-.32-1.19.6-.87.95-.76S308.24,161.9,308.07,162.44Z" style="fill:#263238"></path><path d="M309.91,163.36a19.37,19.37,0,0,1-4.05,3.55,3.37,3.37,0,0,0,2.41,1.29Z" style="fill:#ff847f"></path><path d="M310.47,171.22a4,4,0,0,1-.71-.19.16.16,0,0,1-.11-.21.17.17,0,0,1,.21-.1,4.39,4.39,0,0,0,4-.5.18.18,0,0,1,.24,0,.17.17,0,0,1,0,.23A4.51,4.51,0,0,1,310.47,171.22Z" style="fill:#263238"></path><path d="M316.64,163.15a.33.33,0,0,1-.26-.22,2.65,2.65,0,0,0-1.67-1.73.33.33,0,0,1-.24-.41.33.33,0,0,1,.4-.24,3.35,3.35,0,0,1,2.14,2.17.33.33,0,0,1-.21.42A.29.29,0,0,1,316.64,163.15Z" style="fill:#263238"></path><path d="M306.14,159.47a.32.32,0,0,1-.17-.09.33.33,0,0,1,0-.47,3.26,3.26,0,0,1,2.84-1,.33.33,0,0,1,.26.39.32.32,0,0,1-.38.26,2.56,2.56,0,0,0-2.24.83A.34.34,0,0,1,306.14,159.47Z" style="fill:#263238"></path><path d="M304.81,193.45s-2.22-4.34-3.54-4.07c-.86.18-1.55,2.54-1.92,3.33s-1.58,2.28-1.12,3.06c.65,1.09,5.08-.37,5.08-.37l1.85.58s3.12,4.44,4.41,4.05c.86-.26,1-2.72,1.34-3.53s2.36-2.12,1.91-3.05c-.64-1.32-6.7.4-6.7.4Z" style="fill:#263238"></path><polygon points="320.96 158.94 322.91 167.81 322.2 168.2 320.22 160.14 320.96 158.94" style="fill:#0A6892"></polygon><path d="M309.89,158.37a5.33,5.33,0,0,1-4-2c-.56-1-.42-4.12.62-4.67,1.64-.88,6.38,1.43,6.69,3.27C313.39,156.17,311.05,158.17,309.89,158.37Z" style="fill:#0A6892"></path><path d="M318,162.32a5.37,5.37,0,0,1-4-2c-.55-1-.41-4.12.63-4.67,1.64-.88,6.42,1.43,6.69,3.27C321.44,160.13,319.13,162.12,318,162.32Z" style="fill:#0A6892"></path><rect x="313.28" y="152.84" width="1.12" height="5.49" transform="translate(36.17 369.14) rotate(-63.93)" style="fill:#0A6892"></rect><path d="M309.71,157.71a4.26,4.26,0,0,1-3.21-1.57c-.44-.83-.33-3.29.5-3.73,1.32-.7,5.1,1.15,5.35,2.62C312.51,156,310.64,157.55,309.71,157.71Z" style="fill:#263238"></path><path d="M317.79,161.66a4.26,4.26,0,0,1-3.21-1.57c-.44-.83-.33-3.29.5-3.73,1.31-.7,5.14,1.14,5.35,2.62C320.57,159.91,318.72,161.5,317.79,161.66Z" style="fill:#263238"></path><path d="M325.47,172.33a6.53,6.53,0,0,1-4.29,2.62c-2.28.34-3.15-1.79-2.29-3.81.78-1.81,2.91-4.17,5.09-3.58A3,3,0,0,1,325.47,172.33Z" style="fill:#ffc3bd"></path><path d="M328.67,201.65l-.57-1.6-2-2.46-2.59,3.69a89.49,89.49,0,0,0-.12,19.22c.31-1.39.64-2.81,1-4.24C325.57,211.5,327,206.57,328.67,201.65Z" style="fill:#263238;opacity:0.2"></path><path d="M334.87,200.12c.72,2.52,1.26,4.92,1.81,7.4s1,5,1.38,7.49.69,5.08.85,7.72a40.07,40.07,0,0,1-.24,8.4,17.88,17.88,0,0,1-.54,2.45,14,14,0,0,1-.48,1.36c-.1.24-.2.47-.33.73l-.2.38-.27.45a8.9,8.9,0,0,1-2.73,2.71,10.85,10.85,0,0,1-2.79,1.25,18,18,0,0,1-4.78.69,31.65,31.65,0,0,1-4.2-.24,58.67,58.67,0,0,1-15-4.07l1.43-5.06,3.53.39c1.19.12,2.37.21,3.54.3,2.35.17,4.68.27,6.89.21a25.61,25.61,0,0,0,3.16-.28,8.39,8.39,0,0,0,2.43-.64,1.72,1.72,0,0,0,.51-.33c0-.07-.06,0-.18.09l0,.06s0,0,0,0l0-.12a3.63,3.63,0,0,0,.09-.38,10,10,0,0,0,.15-1.17,35.28,35.28,0,0,0-.25-6.28c-.26-2.25-.61-4.55-1-6.86-.84-4.6-1.9-9.34-3-13.85Z" style="fill:#ffc3bd"></path><path d="M333.79,195.07c4.69,3.3,5.39,20.34,5.39,20.34l-12,1.77s-3.48-7.57-3.64-15C323.35,194.12,328.1,191.07,333.79,195.07Z" style="fill:#0A6892"></path><path d="M310.54,232l-5-5.05-3.11,8.43s5.2,3.35,7.27.76Z" style="fill:#ffc3bd"></path><polygon points="299.76 226.2 297.51 233.29 302.43 235.38 305.54 226.95 299.76 226.2" style="fill:#ffc3bd"></polygon><polygon points="325.32 215.16 327.32 218.53 339.88 217.23 340.15 212.89 325.32 215.16" style="fill:#0A6892"></polygon><polygon points="325.32 215.16 327.32 218.53 339.88 217.23 340.15 212.89 325.32 215.16" style="fill:#fff;opacity:0.9"></polygon><path d="M300.88,226.47l-6.59-2a4,4,0,0,0,.18,1.59c1.1,1.38,6.67,2.37,6.67,2.37Z" style="fill:#ffc3bd"></path></g></svg>